<?xml version="1.0" encoding="UTF-8" standalone="no"?>
<svg width="56px" height="56px" viewBox="0 0 56 56" version="1.1" xmlns="http://www.w3.org/2000/svg" xmlns:xlink="http://www.w3.org/1999/xlink">
    <!-- Generator: Sketch 44.1 (41455) - http://www.bohemiancoding.com/sketch -->
    <title>005-whatsapp</title>
    <desc>Created with Sketch.</desc>
    <defs></defs>
    <g id="Tier-1-(To-Export)" stroke="none" stroke-width="1" fill="none" fill-rule="evenodd">
        <g id="1a-copy-28" transform="translate(-160.000000, -263.000000)" fill-rule="nonzero" fill="#000000">
            <g id="Group" transform="translate(0.000000, -3.000000)">
                <g id="005-whatsapp" transform="translate(160.000000, 266.000000)">
                    <path d="M28,0 C12.5601538,0 0,12.5601538 0,28 C0,33.2672308 1.46353846,38.3804615 4.23984615,42.8206154 C3.13384615,46.6953846 1.13615385,54.0249231 1.11461538,54.1013846 C1.01123077,54.4804615 1.12215385,54.8853846 1.40538462,55.1578462 C1.68861538,55.4303077 2.09784615,55.5272308 2.47046154,55.4130769 L13.5692308,51.9992308 C17.9167692,54.6183077 22.8953846,56 28,56 C43.4398462,56 56,43.4398462 56,28 C56,12.5601538 43.4398462,0 28,0 Z M28,53.8461538 C23.1333846,53.8461538 18.3927692,52.486 14.2896923,49.9143077 C14.1163077,49.8055385 13.9170769,49.7506154 13.7178462,49.7506154 C13.6112308,49.7506154 13.5046154,49.7667692 13.4012308,49.798 L3.71,52.7810769 C4.42184615,50.1824615 5.70123077,45.5344615 6.44323077,42.9487692 C6.52938462,42.6493846 6.48092308,42.3263077 6.31184615,42.0646154 C3.59153846,37.8786154 2.15384615,33.0152308 2.15384615,28 C2.15384615,13.7490769 13.7490769,2.15384615 28,2.15384615 C42.2509231,2.15384615 53.8461538,13.7490769 53.8461538,28 C53.8461538,42.2509231 42.2509231,53.8461538 28,53.8461538 Z" id="Shape"></path>
                    <path d="M46.2915385,34.5972308 C44.3035385,33.4933846 42.6106154,32.3863077 41.3753846,31.5786154 C40.432,30.9626154 39.7503077,30.5178462 39.2506154,30.2669231 C37.8538462,29.5701538 36.7952308,30.0623077 36.3924615,30.4693846 C36.3418462,30.52 36.2966154,30.5749231 36.2578462,30.6330769 C34.8072308,32.8095385 32.9129231,34.8912308 32.3583077,35.0032308 C31.7175385,34.9030769 28.7183077,33.1983077 25.7373846,30.716 C22.694,28.1798462 20.7792308,25.7513846 20.4981538,24.0972308 C22.4506154,22.0876923 23.1538462,20.8233846 23.1538462,19.3846154 C23.1538462,17.9016923 19.6947692,11.7104615 19.0690769,11.0847692 C18.4412308,10.458 17.0272308,10.36 14.8658462,10.7907692 C14.658,10.8327692 14.4663077,10.9350769 14.3155385,11.0847692 C14.0538462,11.3464615 7.93046154,17.5893846 10.8403077,25.1558462 C14.0344615,33.46 22.2330769,43.1124615 32.6856923,44.6804615 C33.8735385,44.8581538 34.9870769,44.9464615 36.0295385,44.9464615 C42.1787692,44.9464615 45.808,41.8524615 46.83,35.7150769 C46.9064615,35.266 46.69,34.818 46.2915385,34.5972308 Z M33.0055385,42.5503077 C21.952,40.8929231 14.9896923,29.9416923 12.8509231,24.3826154 C10.7293846,18.8687692 14.6418462,13.9526154 15.624,12.8412308 C16.4230769,12.7055385 17.2641538,12.6484615 17.6152308,12.7033846 C18.3486154,13.7232308 20.888,18.5209231 21,19.3846154 C21,19.95 20.8158462,20.7372308 18.6232308,22.9309231 C18.4207692,23.1323077 18.3076923,23.4058462 18.3076923,23.6923077 C18.3076923,29.3310769 30.2012308,37.1538462 32.3076923,37.1538462 C34.1395385,37.1538462 36.5281538,34.0749231 37.8883077,32.0686154 C37.9669231,32.0718462 38.0993846,32.0987692 38.2878462,32.1935385 C38.6755385,32.3884615 39.3475385,32.8267692 40.1972308,33.3824615 C41.3193846,34.1158462 42.8098462,35.0893846 44.5695385,36.0984615 C43.7704615,39.9430769 41.5369231,43.8318462 33.0055385,42.5503077 Z" id="Shape"></path>
                </g>
            </g>
        </g>
    </g>
</svg>