<?xml version="1.0" encoding="UTF-8" standalone="no"?>
<svg width="56px" height="56px" viewBox="0 0 56 56" version="1.1" xmlns="http://www.w3.org/2000/svg" xmlns:xlink="http://www.w3.org/1999/xlink">
    <!-- Generator: Sketch 44.1 (41455) - http://www.bohemiancoding.com/sketch -->
    <title>002-instagram copy</title>
    <desc>Created with Sketch.</desc>
    <defs></defs>
    <g id="Tier-1-(To-Export)" stroke="none" stroke-width="1" fill="none" fill-rule="evenodd">
        <g id="1a-copy-28" transform="translate(-51.000000, -264.000000)" fill-rule="nonzero" fill="#010002">
            <g id="Group" transform="translate(0.000000, -3.000000)">
                <g id="002-instagram-copy" transform="translate(51.000000, 267.000000)">
                    <path d="M41.19675,55.3238437 L14.1270937,55.3238437 C6.3376875,55.3238437 0,48.984375 0,41.1949687 L0,14.1253125 C0,6.33590625 6.3376875,0 14.1270937,0 L41.19675,0 C48.9861562,0 55.3238437,6.33590625 55.3238437,14.1253125 L55.3238437,41.1949687 C55.3238437,48.984375 48.9861562,55.3238437 41.19675,55.3238437 Z M14.1270938,3.1599375 C8.07975,3.1599375 3.16171875,8.07796875 3.16171875,14.1235313 L3.16171875,41.1931875 C3.16171875,47.2405313 8.08153125,52.1585625 14.1270938,52.1585625 L41.19675,52.1585625 C47.2440938,52.1585625 52.1603438,47.23875 52.1603438,41.1931875 L52.1603438,14.1253125 C52.1603438,8.07796875 47.2423125,3.16171875 41.19675,3.16171875 L14.1270938,3.16171875 L14.1270938,3.1599375 Z" id="Shape"></path>
                    <path d="M53.7420938,20.7586875 L34.257,20.7586875 C33.3841875,20.7586875 32.67525,20.04975 32.67525,19.1769375 C32.67525,18.304125 33.3824062,17.5951875 34.257,17.5951875 L53.7403125,17.5951875 C54.613125,17.5951875 55.3220625,18.3023438 55.3220625,19.1769375 C55.3238438,20.04975 54.6149063,20.7586875 53.7420938,20.7586875 Z" id="Shape"></path>
                    <path d="M20.6571562,20.7586875 L1.57996875,20.7586875 C0.70715625,20.7586875 0,20.04975 0,19.1787188 C0,18.3059062 0.70715625,17.5969687 1.57996875,17.5969687 L20.6571562,17.5969687 C21.5299688,17.5969687 22.2389062,18.304125 22.2389062,19.1787188 C22.237125,20.04975 21.5299687,20.7586875 20.6571562,20.7586875 Z" id="Shape"></path>
                    <path d="M27.6610313,39.9890625 C20.8637813,39.9890625 15.3312187,34.4600625 15.3312187,27.6610313 C15.3312187,20.862 20.862,15.3312187 27.6610313,15.3312187 C34.4582813,15.3312187 39.9890625,20.8602188 39.9890625,27.6610313 C39.9890625,34.4600625 34.4600625,39.9890625 27.6610313,39.9890625 Z M27.6610313,18.4929375 C22.6058438,18.4929375 18.4911563,22.607625 18.4911563,27.6628125 C18.4911563,32.718 22.6058438,36.829125 27.6610313,36.829125 C32.7162188,36.829125 36.8273438,32.718 36.8273438,27.6628125 C36.8273438,22.607625 32.7162188,18.4929375 27.6610313,18.4929375 Z" id="Shape"></path>
                    <path d="M45.5234063,16.6742812 L38.410875,16.6742812 C37.5380625,16.6742812 36.829125,15.967125 36.829125,15.0943125 L36.829125,7.98 C36.829125,7.1071875 37.5380625,6.40003125 38.410875,6.40003125 L45.5234063,6.40003125 C46.3962188,6.40003125 47.103375,7.1071875 47.103375,7.98 L47.103375,15.0943125 C47.1015938,15.9689062 46.3962188,16.6742812 45.5234063,16.6742812 Z M39.9890625,13.5125625 L43.9416563,13.5125625 L43.9416563,9.56175 L39.9890625,9.56175 L39.9890625,13.5125625 Z" id="Shape"></path>
                </g>
            </g>
        </g>
    </g>
</svg>