<?xml version="1.0" encoding="UTF-8" standalone="no"?>
<svg width="60px" height="56px" viewBox="0 0 60 56" version="1.1" xmlns="http://www.w3.org/2000/svg" xmlns:xlink="http://www.w3.org/1999/xlink">
    <!-- Generator: Sketch 44.1 (41455) - http://www.bohemiancoding.com/sketch -->
    <title>006-messenger</title>
    <desc>Created with Sketch.</desc>
    <defs></defs>
    <g id="Tier-1-(To-Export)" stroke="none" stroke-width="1" fill="none" fill-rule="evenodd">
        <g id="1a-copy-28" transform="translate(-159.000000, -127.000000)" fill-rule="nonzero" fill="#000000">
            <g id="Group" transform="translate(0.000000, -3.000000)">
                <g id="006-messenger" transform="translate(159.000000, 130.000000)">
                    <path d="M54,0 L6,0 C2.748,0 0,2.748 0,6 L0,39 C0,42.252 2.748,45 6,45 L14,45 L14,55 C14,55.413 14.254,55.784 14.639,55.933 C14.757,55.979 14.879,56 15,56 C15.276,56 15.547,55.886 15.74,55.673 L25.442,45 L54,45 C57.252,45 60,42.252 60,39 L60,6 C60,2.748 57.252,0 54,0 Z M58,39 C58,41.168 56.168,43 54,43 L25,43 C24.718,43 24.45,43.119 24.26,43.327 L16,52.413 L16,44 C16,43.447 15.552,43 15,43 L6,43 C3.832,43 2,41.168 2,39 L2,6 C2,3.832 3.832,2 6,2 L54,2 C56.168,2 58,3.832 58,6 L58,39 Z" id="Shape"></path>
                    <path d="M50.561,10.172 C50.139,9.886 49.572,9.964 49.241,10.35 L37.839,23.65 L20.585,11.189 C20.348,11.018 20.047,10.959 19.761,11.029 C19.476,11.098 19.236,11.29 19.105,11.552 L9.105,31.552 C8.882,32 9.023,32.543 9.435,32.825 C9.846,33.105 10.404,33.041 10.74,32.673 L20.139,22.334 L37.415,34.811 C37.586,34.935 37.792,35 38,35 C38.077,35 38.154,34.991 38.23,34.974 C38.513,34.907 38.752,34.72 38.887,34.463 L50.887,11.463 C51.122,11.012 50.981,10.456 50.561,10.172 Z M37.648,32.513 L20.585,20.189 C20.409,20.063 20.204,20 20,20 C19.727,20 19.456,20.111 19.26,20.327 L14.136,25.964 L20.368,13.5 L37.414,25.811 C37.836,26.118 38.421,26.047 38.759,25.651 L45.069,18.291 L37.648,32.513 Z" id="Shape"></path>
                </g>
            </g>
        </g>
    </g>
</svg>