<?xml version="1.0" encoding="UTF-8" standalone="no"?>
<svg width="56px" height="56px" viewBox="0 0 56 56" version="1.1" xmlns="http://www.w3.org/2000/svg" xmlns:xlink="http://www.w3.org/1999/xlink">
    <!-- Generator: Sketch 44.1 (41455) - http://www.bohemiancoding.com/sketch -->
    <title>003-facebook</title>
    <desc>Created with Sketch.</desc>
    <defs></defs>
    <g id="Tier-1-(To-Export)" stroke="none" stroke-width="1" fill="none" fill-rule="evenodd">
        <g id="1a-copy-28" transform="translate(-51.000000, -127.000000)" fill-rule="nonzero" fill="#000000">
            <g id="Group" transform="translate(0.000000, -3.000000)">
                <g id="003-facebook" transform="translate(51.000000, 130.000000)">
                    <path d="M51.3332969,0 L4.66670312,0 C2.05329687,0 0,2.05329687 0,4.66670312 L0,51.3334062 C0,53.9467031 2.05329687,56 4.66670312,56 L26.1334062,56 L37.3334062,56 L51.3334062,56 C53.9467031,56 56,53.9467031 56,51.3332969 L56,4.66670312 C56,2.05329687 53.9467031,0 51.3332969,0 Z M28,54.1332969 L28,35.4667031 L20.5332969,35.4667031 L20.5332969,28 L28,28 L28,21.4667031 C28,16.1467031 32.1067031,11.6667031 37.3332969,11.2 L45.7332969,11.2 L45.7332969,18.6667031 L38.2665938,18.6667031 C36.6798906,18.6667031 35.4665938,19.88 35.4665938,21.4667031 L35.4665938,28 L44.8,28 L44.8,35.4667031 L35.4667031,35.4667031 L35.4667031,54.1334062 L28,54.1334062 L28,54.1332969 Z M54.1332969,51.3332969 C54.1332969,52.92 52.92,54.1332969 51.3332969,54.1332969 L37.3332969,54.1332969 L37.3332969,37.3332969 L46.6665937,37.3332969 L46.6665937,26.1332969 L37.3332969,26.1332969 L37.3332969,21.4665937 C37.3332969,20.9065937 37.7065937,20.5332969 38.2665937,20.5332969 L47.6,20.5332969 L47.6,9.33329688 L37.24,9.33329688 C30.9867031,9.89329688 26.1332969,15.2132969 26.1332969,21.4665937 L26.1332969,26.1332969 L18.6665937,26.1332969 L18.6665937,37.3332969 L26.1332969,37.3332969 L26.1332969,54.1332969 L4.66670312,54.1332969 C3.08,54.1332969 1.86670313,52.92 1.86670313,51.3332969 L1.86670313,4.66670312 C1.86670313,3.08 3.08,1.86670313 4.66670312,1.86670313 L51.3334062,1.86670313 C52.9201094,1.86670313 54.1334062,3.08 54.1334062,4.66670312 L54.1334062,51.3332969 L54.1332969,51.3332969 Z" id="Shape"></path>
                </g>
            </g>
        </g>
    </g>
</svg>