<?xml version="1.0" encoding="UTF-8" standalone="no"?>
<svg width="62px" height="48px" viewBox="0 0 62 48" version="1.1" xmlns="http://www.w3.org/2000/svg" xmlns:xlink="http://www.w3.org/1999/xlink">
    <!-- Generator: Sketch 44.1 (41455) - http://www.bohemiancoding.com/sketch -->
    <title>003-envelope</title>
    <desc>Created with Sketch.</desc>
    <defs></defs>
    <g id="Tier-1-(To-Export)" stroke="none" stroke-width="1" fill="none" fill-rule="evenodd">
        <g id="1a-copy-28" transform="translate(-48.000000, -408.000000)" fill-rule="nonzero" fill="#000000">
            <g id="Group" transform="translate(0.000000, -3.000000)">
                <g id="003-envelope" transform="translate(48.000000, 411.000000)">
                    <path d="M54.3524793,0.0975609756 L7.57066116,0.0975609756 C3.3946281,0.0975609756 0,3.54471545 0,7.78536585 L0,40.2536585 C0,44.4943089 3.3946281,47.9414634 7.57066116,47.9414634 L54.3396694,47.9414634 C58.5157025,47.9414634 61.9103306,44.4943089 61.9103306,40.2536585 L61.9103306,7.79837398 C61.9231405,3.55772358 58.5285124,0.0975609756 54.3524793,0.0975609756 Z M58.4644628,40.2536585 C58.4644628,42.5560976 56.6198347,44.4292683 54.3524793,44.4292683 L7.57066116,44.4292683 C5.30330579,44.4292683 3.45867769,42.5560976 3.45867769,40.2536585 L3.45867769,7.79837398 C3.45867769,5.49593496 5.30330579,3.62276423 7.57066116,3.62276423 L54.3396694,3.62276423 C56.6070248,3.62276423 58.4516529,5.49593496 58.4516529,7.79837398 L58.4516529,40.2536585 L58.4644628,40.2536585 Z" id="Shape"></path>
                    <path d="M39.0446281,23.6162602 L54.1859504,9.82764228 C54.8904959,9.17723577 54.9545455,8.07154472 54.3140496,7.34308943 C53.6735537,6.62764228 52.5847107,6.56260163 51.8673554,7.21300813 L30.9871901,26.2439024 L26.9136364,22.5495935 C26.9008264,22.5365854 26.8880165,22.5235772 26.8880165,22.5105691 C26.7983471,22.4195122 26.7086777,22.3414634 26.6061983,22.2634146 L10.0301653,7.2 C9.31280992,6.5495935 8.22396694,6.61463415 7.58347107,7.34308943 C6.94297521,8.07154472 7.00702479,9.17723577 7.72438017,9.82764228 L23.0450413,23.7333333 L7.78842975,38.2373984 C7.09669421,38.900813 7.05826446,40.0065041 7.71157025,40.7219512 C8.05743802,41.0861789 8.51859504,41.2813008 8.97975207,41.2813008 C9.40247934,41.2813008 9.82520661,41.1252033 10.1582645,40.8130081 L25.6454545,26.100813 L29.8471074,29.9121951 C30.1801653,30.2113821 30.5900826,30.3544715 31,30.3544715 C31.4099174,30.3544715 31.8326446,30.198374 32.1528926,29.899187 L36.4698347,25.9707317 L51.8673554,40.8260163 C52.2004132,41.1512195 52.6359504,41.3073171 53.0586777,41.3073171 C53.5198347,41.3073171 53.9681818,41.1252033 54.3140496,40.7609756 C54.9673554,40.0585366 54.9417355,38.9398374 54.25,38.2764228 L39.0446281,23.6162602 Z" id="Shape"></path>
                </g>
            </g>
        </g>
    </g>
</svg>