<?xml version="1.0" encoding="UTF-8" standalone="no"?>
<svg width="63px" height="64px" viewBox="0 0 63 64" version="1.1" xmlns="http://www.w3.org/2000/svg" xmlns:xlink="http://www.w3.org/1999/xlink">
    <!-- Generator: Sketch 44.1 (41455) - http://www.bohemiancoding.com/sketch -->
    <title>004-line</title>
    <desc>Created with Sketch.</desc>
    <defs></defs>
    <g id="Tier-1-(To-Export)" stroke="none" stroke-width="1" fill="none" fill-rule="evenodd">
        <g id="1a-copy-28" transform="translate(-264.000000, -261.000000)" fill-rule="nonzero" fill="#000000">
            <g id="Group" transform="translate(0.000000, -3.000000)">
                <g id="004-line" transform="translate(264.000000, 264.000000)">
                    <path d="M53.6343493,7.64740619 C47.7093368,2.7158433 39.8484823,0 31.5,0 C23.1515177,0 15.2906632,2.7158433 9.36565073,7.64740619 C3.36833888,12.6390103 0.0654885655,19.295934 0.0654885655,26.3917526 C0.0654885655,33.0676784 2.94200832,39.3402062 8.16511435,44.054301 C13.018341,48.4342763 19.63858,51.2358928 26.9158004,52.0103588 L26.9158004,62.6804124 C26.9158004,63.1825155 27.19858,63.6409402 27.6452121,63.8634227 C27.8292349,63.9550021 28.0277963,64 28.2254407,64 C28.5078274,64 28.7882495,63.9080247 29.0211268,63.7286928 L48.6612786,48.5979052 C53.3128004,45.0596948 56.5209543,41.9572124 58.7575198,38.8340124 C61.568158,34.9091629 62.9345114,30.8392907 62.9345114,26.3917526 C62.9345114,19.295934 59.6316611,12.6390103 53.6343493,7.64740619 Z M47.0767173,46.4965938 L29.535474,60.0103588 L29.535474,50.8042557 C29.535474,50.1133196 29.0064574,49.539299 28.3224948,49.4882309 C21.1437692,48.9518186 14.6059148,46.3238598 9.91300416,42.0885113 C5.25205198,37.8817979 2.68503119,32.307332 2.68503119,26.3917526 C2.68503119,13.2945814 15.6112952,2.63917526 31.5,2.63917526 C47.3887048,2.63917526 60.3149688,13.2945814 60.3149688,26.3917526 C60.3149688,35.2108206 53.9553742,41.264033 47.0767173,46.4965938 Z" id="Shape"></path>
                    <path d="M38.9929397,20.672 C38.9878316,19.6849485 38.4749252,19.1352082 37.6536985,19.1447093 C36.8401996,19.1557938 36.3503451,19.7189938 36.345237,20.7035381 C36.3310915,22.5252289 36.3413077,24.3453361 36.3375094,26.1654433 C36.3375094,26.4283052 36.3131476,26.688132 36.2914054,27.1842969 C35.9819064,26.8200907 35.806659,26.6327093 35.6505343,26.4297567 C33.9749439,24.2381856 32.3044615,22.0423918 30.6301809,19.8477856 C30.2208773,19.3111093 29.7028628,18.9874144 29.0236154,19.2021113 C28.3469875,19.4152247 28.0503243,19.9719588 28.0490146,20.6441567 C28.0361788,24.1616495 28.0361788,27.6770309 28.0490146,31.1930722 C28.0503243,31.7698639 28.2817609,32.2647093 28.8394615,32.5302103 C29.8244096,32.9972124 30.7568358,32.2930804 30.7683617,31.0332701 C30.7914137,29.3142433 30.7760894,27.5925773 30.7760894,25.8709113 C30.7760894,25.5389031 30.7760894,25.206367 30.7760894,24.8734351 C31.104842,25.024132 31.2647651,25.2001649 31.4105426,25.3883381 C33.0810249,27.5543093 34.747578,29.7218639 36.414262,31.8935093 C36.8274948,32.438367 37.3007152,32.8368825 38.0425696,32.5827299 C38.7690998,32.3343835 38.9993576,31.7853031 38.9993576,31.0732536 C38.9955593,27.6049814 39.0057755,24.1389526 38.9929397,20.672 Z" id="Shape"></path>
                    <path d="M44.116896,21.8992165 C44.368896,21.8796866 44.6566528,21.839967 44.9495177,21.8391753 C45.9370852,21.8305979 46.9296299,21.8502598 47.9157568,21.8262433 C48.2764678,21.8159505 48.6716258,21.7902186 48.9901622,21.6393897 C49.6142682,21.3460454 49.7997318,20.7592247 49.6322121,20.1251629 C49.4684906,19.4781691 48.9901622,19.1419381 48.3135343,19.1398268 C46.557262,19.1354722 44.8011206,19.1316454 43.0449792,19.1354722 C41.786289,19.1387711 41.28242,19.6295258 41.2798004,20.8923711 C41.2669647,24.2340948 41.2669647,27.5760825 41.2798004,30.9163546 C41.28242,32.1594062 41.8208669,32.6877691 43.0500873,32.6929155 C44.6873015,32.7005691 46.3180977,32.6980619 47.9502037,32.691332 C48.2187069,32.6886928 48.4924491,32.6516124 48.7508669,32.5753402 C49.3354179,32.4027381 49.6526445,32.0006598 49.6717672,31.3738557 C49.6935094,30.7165691 49.3968462,30.2635546 48.7841351,30.0748536 C48.4553825,29.9737732 48.1010894,29.9485691 47.7621206,29.9459299 C46.5366985,29.9299629 45.3074782,29.9386722 44.0604449,29.9386722 C44.0604449,29.0055918 44.0604449,28.1962887 44.0604449,27.3466062 C44.294501,27.324701 44.483894,27.2932948 44.6745967,27.2914474 C45.8372807,27.2849814 47.003763,27.3177072 48.1651372,27.2760082 C49.1768046,27.2378722 49.7076549,26.6794227 49.6692786,25.8152247 C49.6360104,25.0385155 49.0705821,24.5591093 48.1445738,24.5415588 C47.5000353,24.5299464 46.8578545,24.5394474 46.2093867,24.5389196 C43.8072661,24.5389196 43.8072661,24.5389196 44.0324158,22.1123299 C44.0363451,22.0641649 44.0683035,22.0195629 44.116896,21.8992165 Z" id="Shape"></path>
                    <path d="M20.2134387,29.9530557 C19.9434948,29.9213856 19.6710624,29.9386722 19.3999397,29.9386722 C18.2654158,29.9368247 17.136,29.9386722 15.8952536,29.9386722 C15.8952536,29.5168 15.8952536,29.219101 15.8952536,28.9240412 C15.8952536,26.2578144 15.9003617,23.5897402 15.8914553,20.9232495 C15.887657,19.785501 15.3874553,19.1515711 14.5317817,19.1448412 C13.6453285,19.1365278 13.1656902,19.7427464 13.1656902,20.8963299 C13.1632017,24.2860866 13.1605821,27.6739959 13.1683098,31.0649402 C13.1735489,32.1422515 13.6927422,32.6695588 14.764659,32.6912 C15.7265551,32.7082227 19.3386424,32.7236619 20.1789917,32.6798515 C20.9987775,32.6334021 21.5693139,32.0225649 21.5577879,31.2989031 C21.5449522,30.6044041 20.9987775,30.0468784 20.2134387,29.9530557 Z" id="Shape"></path>
                    <path d="M25.7491871,20.4891052 C25.7414595,19.4618062 25.4166362,19.1365278 24.4329979,19.1352082 C23.4314158,19.1325691 23.092578,19.4432 23.0899584,20.4637691 C23.0784324,24.0797031 23.0784324,27.6944495 23.0899584,31.3117031 C23.092578,32.3267299 23.4583971,32.691068 24.4061476,32.6926515 C25.3807484,32.6979299 25.744079,32.3189443 25.7491871,31.2602392 C25.7544262,29.4901443 25.7518067,27.7211052 25.7518067,25.9496907 C25.7518067,24.1293196 25.7544262,22.310532 25.7491871,20.4891052 Z" id="Shape"></path>
                </g>
            </g>
        </g>
    </g>
</svg>