<?xml version="1.0" encoding="UTF-8" standalone="no"?>
<svg width="56px" height="53px" viewBox="0 0 56 53" version="1.1" xmlns="http://www.w3.org/2000/svg" xmlns:xlink="http://www.w3.org/1999/xlink">
    <!-- Generator: Sketch 44.1 (41455) - http://www.bohemiancoding.com/sketch -->
    <title>001-link</title>
    <desc>Created with Sketch.</desc>
    <defs></defs>
    <g id="Tier-1-(To-Export)" stroke="none" stroke-width="1" fill="none" fill-rule="evenodd">
        <g id="1a-copy-28" transform="translate(-268.000000, -403.000000)" fill-rule="nonzero" fill="#000000">
            <g id="Group" transform="translate(0.000000, -3.000000)">
                <g id="001-link" transform="translate(268.000000, 406.000000)">
                    <path d="M29.5884058,22.7159645 C28.973913,23.3388027 28.973913,24.337694 29.5884058,24.9605322 C32.1275362,27.5341463 32.1275362,31.7177384 29.5884058,34.2913525 L16.2550725,47.805765 C13.715942,50.3793792 9.5884058,50.3793792 7.04927536,47.805765 L5.04347826,45.7727273 C2.50434783,43.1991131 2.50434783,39.0155211 5.04347826,36.4419069 L18.3768116,22.9274945 C18.9913043,22.3046563 18.9913043,21.305765 18.3768116,20.6829268 C17.7623188,20.0600887 16.7768116,20.0600887 16.1623188,20.6829268 L2.82898551,34.1973392 C1.00869565,36.0423503 0,38.4984479 0,41.1073171 C0,43.7161863 0.997101449,46.1722838 2.82898551,48.0172949 L4.83478261,50.0503326 C6.71304348,51.954102 9.1826087,52.9059867 11.6521739,52.9059867 C14.1217391,52.9059867 16.5913043,51.954102 18.4695652,50.0503326 L31.8028986,36.5359202 C35.5594203,32.7283814 35.5594203,26.5235033 31.8028986,22.7159645 C31.2,22.0931264 30.2028986,22.0931264 29.5884058,22.7159645 Z" id="Shape"></path>
                    <path d="M53.1594203,4.95920177 L51.1536232,2.92616408 C47.3971014,-0.881374723 41.2753623,-0.881374723 37.5188406,2.92616408 L24.1855072,16.4405765 C20.4289855,20.2481153 20.4289855,26.4529933 24.1855072,30.2605322 C24.8,30.8833703 25.7855072,30.8833703 26.4,30.2605322 C27.0144928,29.637694 27.0144928,28.6388027 26.4,28.0159645 C23.8608696,25.4423503 23.8608696,21.2587583 26.4,18.6851441 L39.7333333,5.17073171 C42.2724638,2.59711752 46.4,2.59711752 48.9391304,5.17073171 L50.9449275,7.2037694 C53.484058,9.77738359 53.484058,13.9609756 50.9449275,16.5345898 L37.6115942,30.0490022 C36.9971014,30.6718404 36.9971014,31.6707317 37.6115942,32.2935698 C37.9130435,32.5991131 38.3188406,32.7636364 38.7130435,32.7636364 C39.1072464,32.7636364 39.5130435,32.6108647 39.8144928,32.2935698 L53.1478261,18.7791574 C54.9681159,16.9341463 55.9768116,14.4780488 55.9768116,11.8691796 C55.9768116,9.26031042 54.9797101,6.80421286 53.1594203,4.95920177 Z" id="Shape"></path>
                </g>
            </g>
        </g>
    </g>
</svg>