<?xml version="1.0" encoding="UTF-8" standalone="no"?>
<svg width="66px" height="53px" viewBox="0 0 66 53" version="1.1" xmlns="http://www.w3.org/2000/svg" xmlns:xlink="http://www.w3.org/1999/xlink">
    <!-- Generator: Sketch 44.1 (41455) - http://www.bohemiancoding.com/sketch -->
    <title>001-twitter</title>
    <desc>Created with Sketch.</desc>
    <defs></defs>
    <g id="Tier-1-(To-Export)" stroke="none" stroke-width="1" fill="none" fill-rule="evenodd">
        <g id="1a-copy-28" transform="translate(-264.000000, -127.000000)" fill-rule="nonzero" fill="#000000">
            <g id="Group" transform="translate(0.000000, -3.000000)">
                <g id="001-twitter" transform="translate(264.000000, 130.000000)">
                    <path d="M65.5284609,6.004506 C65.192918,5.67366906 64.6335937,5.56334772 64.1860312,5.67366906 L61.9487344,6.44579137 C63.2911641,4.90167386 64.1860312,3.24723501 64.7453555,1.70311751 C64.9691367,1.15163789 64.8572461,0.710479616 64.5215742,0.379515588 C64.1860312,0.0486786571 63.626707,-0.0616426859 63.1791445,0.158872902 C60.0469805,1.48247482 57.36225,2.58543405 55.1249531,3.24710791 C55.1249531,3.35742926 55.0130625,3.24710791 54.9011719,3.24710791 C53.1113086,2.25447002 48.7486055,0.0485515588 45.6164414,0.0485515588 C37.6740117,0.158872902 31.297793,6.7766283 31.297793,14.8281799 L31.297793,15.2693381 C19.663875,13.0634197 13.2876562,9.75454197 6.35198438,2.58530695 L5.23359375,1.48234772 L4.56237891,2.80594964 C0.759,9.97518465 3.44373047,16.4826187 7.80643359,20.8944556 C5.79291797,20.5636187 4.45048828,19.9018177 3.21994922,18.9091799 C2.77251562,18.5783429 2.21319141,18.4680216 1.65386719,18.7988585 C1.20643359,19.0195012 0.982652344,19.6811751 1.09454297,20.2326547 C2.660625,25.4164868 6.57589453,29.6078082 10.826707,32.1445635 C8.81319141,32.1445635 7.13521875,31.9239209 5.45724609,30.8209616 C5.0098125,30.6003189 4.33859766,30.6003189 3.89116406,30.931283 C3.44373047,31.262247 3.21994922,31.8135995 3.44373047,32.3650791 C5.45724609,37.9901966 9.37251562,40.9681103 15.6369727,41.7402326 C12.392918,43.6153141 8.14210547,45.1594317 1.54210547,45.269753 C0.870890625,45.269753 0.311566406,45.7109113 0.0879140625,46.2623909 C-0.135867187,46.9241918 0.0879140625,47.4756715 0.535347656,47.9168297 C4.56250781,51.1153861 13.5115664,52.9904676 24.5861602,52.9904676 C44.2742695,52.9904676 60.3827812,35.6740839 60.3827812,14.3870216 L60.3827812,14.0561847 C62.8438594,12.8429041 64.857375,10.5266643 65.8641328,7.32810791 C65.9758945,6.88682254 65.8640039,6.33534293 65.5284609,6.004506 Z M58.8165703,12.2912974 L58.1453555,12.51194 L58.1453555,14.3870216 C58.1453555,34.4608034 43.0436016,50.7845492 24.5860312,50.7845492 C14.4063047,50.7845492 7.58265234,49.1301103 3.89116406,47.3653501 C11.6098125,46.8138705 16.0844062,44.3873094 19.5522422,41.7402326 L22.3488633,39.7549568 L18.992918,39.7549568 C12.6166992,39.7549568 8.70142969,37.9901966 6.46413281,33.7990024 C8.47764844,34.4608034 10.6030547,34.4608034 12.9522422,34.350482 C13.8471094,34.2401607 14.7421055,34.2401607 15.6369727,34.2401607 L15.9725156,32.0342422 C11.7217031,30.8209616 6.68778516,27.0709257 4.22670703,21.9974149 C6.46400391,22.9900528 8.92495312,23.2106954 11.16225,23.2106954 L14.6300859,23.2106954 L11.8335937,21.2252926 C9.48440625,19.5708537 2.54886328,13.7252206 5.90480859,5.34270504 C13.0641328,12.2912974 19.8879141,15.4898537 32.192918,17.6957722 L33.5353477,17.9164149 L33.5353477,14.8281799 C33.5353477,7.98990887 38.9048086,2.36479137 45.6166992,2.25447002 C48.1895391,2.14414868 52.4404805,4.46038849 53.6708906,5.12218945 C54.3421055,5.45302638 55.0133203,5.56334772 55.6844062,5.34283213 C57.3623789,4.79135252 59.3758945,4.01923022 61.6131914,3.13691367 C60.6064336,4.79135252 59.2640039,6.33547002 57.4742695,7.76939329 C57.0268359,8.10023022 56.9149453,8.76203118 57.1387266,9.31351079 C57.3625078,9.86499041 58.0335937,10.0856331 58.592918,9.86499041 L62.9556211,8.43119424 C62.1725156,9.86486331 60.9419766,11.5193022 58.8165703,12.2912974 Z" id="Shape"></path>
                </g>
            </g>
        </g>
    </g>
</svg>