<?xml version="1.0" encoding="UTF-8" standalone="no"?>
<svg width="55px" height="55px" viewBox="0 0 55 55" version="1.1" xmlns="http://www.w3.org/2000/svg" xmlns:xlink="http://www.w3.org/1999/xlink">
    <!-- Generator: Sketch 44.1 (41455) - http://www.bohemiancoding.com/sketch -->
    <title>002-notification</title>
    <desc>Created with Sketch.</desc>
    <defs></defs>
    <g id="Tier-1-(To-Export)" stroke="none" stroke-width="1" fill="none" fill-rule="evenodd">
        <g id="1a-copy-28" transform="translate(-163.000000, -401.000000)" fill-rule="nonzero" fill="#000000">
            <g id="Group" transform="translate(0.000000, -3.000000)">
                <g id="002-notification" transform="translate(163.000000, 404.000000)">
                    <path d="M54.5,10 C54.5,4.486 50.014,0 44.5,0 C40.031,0 36.239,2.948 34.961,7 L5.735,7 C2.849,7 0.5,9.349 0.5,12.235 L0.5,49.764 C0.5,52.651 2.849,55 5.735,55 L43.264,55 C46.151,55 48.499,52.651 48.499,49.765 L48.499,19.159 C52.027,17.612 54.5,14.091 54.5,10 Z M46.5,49.765 C46.5,51.549 45.049,53 43.265,53 L5.735,53 C3.951,53 2.5,51.549 2.5,49.765 L2.5,12.235 C2.5,10.451 3.951,9 5.735,9 L34.55,9 C34.518,9.329 34.5,9.662 34.5,10 C34.5,15.514 38.986,20 44.5,20 C45.185,20 45.854,19.93 46.5,19.798 L46.5,49.765 Z M47.154,17.538 C46.956,17.608 46.756,17.668 46.555,17.723 C46.519,17.733 46.482,17.742 46.446,17.751 C46.269,17.796 46.091,17.835 45.912,17.868 C45.82,17.885 45.726,17.897 45.633,17.911 C45.499,17.931 45.364,17.951 45.23,17.964 C44.989,17.985 44.746,18 44.5,18 C40.089,18 36.5,14.411 36.5,10 C36.5,9.42 36.569,8.823 36.706,8.223 C37.517,4.665 40.7,2 44.5,2 C48.911,2 52.5,5.589 52.5,10 C52.5,13.48 50.262,16.44 47.154,17.538 Z" id="Shape"></path>
                </g>
            </g>
        </g>
    </g>
</svg>